<?xml version="1.0" encoding="utf-8"?>
<!-- Generator: Adobe Illustrator 27.5.0, SVG Export Plug-In . SVG Version: 6.00 Build 0)  -->
<svg version="1.1" id="Layer_1" xmlns="http://www.w3.org/2000/svg" xmlns:xlink="http://www.w3.org/1999/xlink" x="0px" y="0px"
	 viewBox="0 0 1300 1300" style="enable-background:new 0 0 1300 1300;" xml:space="preserve">
<g id="XMLID_27_">
	<g id="XMLID_66_">
		<path id="XMLID_67_" style="fill:#006699;" d="M322.509,801.7c5.193,7.447,9.798,15.311,13.817,23.592
			c4.017,8.281,7.545,16.781,10.583,25.502c3.036,8.723,5.608,17.59,7.717,26.605c2.107,9.018,3.896,17.982,5.365,26.898h-17.786
			c-0.786-4.703-1.642-9.309-2.572-13.816c-0.933-4.506-1.984-9.016-3.161-13.523h-47.919c-1.176,4.508-2.23,9.018-3.16,13.523
			c-0.933,4.508-1.789,9.113-2.572,13.816h-17.786c1.47-8.916,3.257-17.881,5.365-26.898c2.107-9.016,4.679-17.883,7.717-26.605
			c3.036-8.721,6.564-17.221,10.583-25.502c4.017-8.281,8.622-16.145,13.817-23.592H322.509z M332.21,861.818
			c-2.45-7.738-5.243-15.309-8.378-22.709c-3.137-7.398-6.812-14.625-11.024-21.682h-0.588c-4.215,7.057-7.915,14.283-11.098,21.682
			c-3.185,7.4-6.004,14.971-8.452,22.709H332.21z"/>
		<path id="XMLID_70_" style="fill:#006699;" d="M422.461,801.7c4.506,0,8.647,0.564,12.421,1.689
			c3.771,1.129,7.03,2.844,9.775,5.145c2.742,2.305,4.873,5.219,6.394,8.746c1.518,3.527,2.278,7.644,2.278,12.348
			c0,4.41-1.029,8.305-3.087,11.686c-2.058,3.381-4.997,6.1-8.819,8.158c5.292,2.156,9.309,5.267,12.053,9.334
			c2.742,4.067,4.116,8.943,4.116,14.625c0,5.586-0.907,10.34-2.719,14.258c-1.815,3.92-4.314,7.105-7.497,9.555
			c-3.186,2.451-6.982,4.24-11.392,5.365c-4.41,1.127-9.164,1.689-14.258,1.689h-47.625V801.7H422.461z M391.887,816.839v25.725
			h29.104c4.311,0,7.74-1.023,10.289-3.068c2.547-2.047,3.822-5.31,3.822-9.795c0-4.676-1.226-7.99-3.675-9.938
			c-2.45-1.947-5.93-2.924-10.436-2.924H391.887z M435.029,885.411c2.988-2.5,4.483-6.492,4.483-11.981
			c0-5.586-1.495-9.604-4.483-12.053c-2.99-2.449-7.129-3.676-12.421-3.676h-30.721v31.457h30.721
			C427.9,889.159,432.039,887.909,435.029,885.411z"/>
		<path id="XMLID_74_" style="fill:#006699;" d="M469.349,875.782h18.227c1.566,5.391,4.605,9.285,9.113,11.686
			c4.506,2.402,9.848,3.602,16.022,3.602c7.74,0,13.645-1.471,17.712-4.41c4.065-2.94,6.1-6.467,6.1-10.582
			c0-2.941-0.932-5.316-2.792-7.129c-1.863-1.813-4.288-3.332-7.276-4.557c-2.99-1.225-6.419-2.279-10.289-3.162
			c-3.872-0.881-7.79-1.811-11.759-2.791c-3.969-0.979-7.889-2.133-11.759-3.455c-3.872-1.322-7.301-3.063-10.289-5.219
			c-2.99-2.154-5.416-4.85-7.276-8.084c-1.863-3.234-2.793-7.25-2.793-12.053c0-4.115,0.93-7.961,2.793-11.539
			c1.86-3.576,4.557-6.688,8.085-9.334c3.527-2.647,7.765-4.727,12.714-6.246c4.947-1.52,10.51-2.279,16.684-2.279
			c12.149,0,21.851,2.719,29.104,8.158c7.25,5.438,11.513,12.766,12.788,21.975h-18.08c-0.98-4.898-3.505-8.721-7.57-11.465
			c-4.067-2.742-9.531-4.115-16.389-4.115c-3.725,0-6.982,0.393-9.775,1.176c-2.793,0.785-5.121,1.814-6.982,3.086
			c-1.863,1.275-3.234,2.744-4.116,4.41c-0.882,1.668-1.323,3.432-1.323,5.291c0,3.334,1.592,5.881,4.777,7.644
			c3.183,1.764,7.152,3.258,11.906,4.483c4.752,1.227,9.897,2.477,15.434,3.748c5.535,1.275,10.68,3.065,15.434,5.365
			c4.752,2.305,8.721,5.391,11.906,9.26c3.183,3.873,4.777,8.992,4.777,15.361c0,4.41-0.956,8.502-2.867,12.273
			c-1.911,3.773-4.681,7.057-8.305,9.848c-3.627,2.793-8.036,4.998-13.229,6.615c-5.195,1.617-11.075,2.426-17.639,2.426
			c-5.292,0-10.34-0.613-15.14-1.838c-4.802-1.225-9.139-3.086-13.009-5.586c-3.872-2.498-7.129-5.633-9.774-9.406
			C471.848,885.167,470.132,880.781,469.349,875.782z"/>
		<path id="XMLID_76_" style="fill:#006699;" d="M647.793,816.839h-34.836v87.459h-17.933v-87.459h-34.836V801.7h87.606V816.839z"/>
		<path id="XMLID_78_" style="fill:#006699;" d="M706.736,801.7c4.898,0,9.504,0.49,13.816,1.469
			c4.311,0.98,8.06,2.623,11.245,4.924c3.183,2.303,5.682,5.291,7.496,8.963c1.813,3.674,2.72,8.203,2.72,13.592
			c0,7.055-1.764,12.934-5.292,17.635c-3.527,4.703-8.723,7.984-15.581,9.846c4.704,7.354,9.089,14.9,13.156,22.644
			c4.065,7.746,7.96,15.586,11.686,23.525h-19.844c-3.432-7.642-7.106-15.188-11.024-22.637c-3.92-7.445-8.183-14.746-12.788-21.9
			h-25.576v44.537h-17.786V801.7H706.736z M676.749,844.62h31.456c4.997,0,8.916-0.992,11.759-2.981
			c2.841-1.988,4.263-5.65,4.263-10.982c0-5.139-1.446-8.727-4.336-10.764c-2.892-2.035-6.787-3.055-11.686-3.055h-31.456V844.62z"
			/>
		<path id="XMLID_81_" style="fill:#006699;" d="M809.334,801.7c5.192,7.447,9.798,15.311,13.816,23.592
			c4.018,8.281,7.545,16.781,10.583,25.502c3.037,8.723,5.609,17.59,7.718,26.605c2.106,9.018,3.895,17.982,5.365,26.898H829.03
			c-0.785-4.703-1.643-9.309-2.572-13.816c-0.933-4.506-1.984-9.016-3.16-13.523h-47.919c-1.176,4.508-2.23,9.018-3.16,13.523
			c-0.933,4.508-1.789,9.113-2.572,13.816h-17.786c1.47-8.916,3.257-17.881,5.365-26.898c2.107-9.016,4.679-17.883,7.717-26.605
			c3.036-8.721,6.565-17.221,10.584-25.502c4.017-8.281,8.621-16.145,13.816-23.592H809.334z M819.035,861.818
			c-2.451-7.738-5.244-15.309-8.379-22.709c-3.137-7.398-6.812-14.625-11.024-21.682h-0.588
			c-4.214,7.057-7.914,14.283-11.098,21.682c-3.185,7.4-6.003,14.971-8.451,22.709H819.035z"/>
		<path id="XMLID_84_" style="fill:#006699;" d="M942.361,875.782c-1.176,4.998-3.111,9.385-5.806,13.156
			c-2.696,3.773-5.93,6.908-9.701,9.406c-3.773,2.5-7.938,4.361-12.494,5.586c-4.557,1.225-9.286,1.838-14.185,1.838
			c-7.841,0-14.699-1.373-20.579-4.115c-5.879-2.742-10.755-6.492-14.625-11.246c-3.872-4.752-6.787-10.338-8.746-16.756
			c-1.961-6.418-2.939-13.303-2.939-20.652s0.955-14.232,2.866-20.652c1.911-6.416,4.825-12.002,8.746-16.756
			c3.918-4.752,8.819-8.5,14.698-11.246c5.88-2.742,12.738-4.115,20.579-4.115c4.998,0,9.749,0.621,14.258,1.855
			c4.506,1.238,8.622,3.119,12.348,5.641c3.723,2.525,6.883,5.678,9.481,9.463c2.596,3.785,4.483,8.227,5.659,13.32h-19.402
			c-0.688-2.645-1.765-4.924-3.234-6.834c-1.47-1.912-3.185-3.479-5.145-4.703c-1.961-1.225-4.141-2.133-6.541-2.721
			c-2.402-0.588-4.876-0.881-7.423-0.881c-5.489,0-10.069,1.076-13.743,3.229c-3.675,2.152-6.665,5.012-8.967,8.58
			c-2.304,3.57-3.945,7.606-4.924,12.104c-0.982,4.5-1.471,9.096-1.471,13.791c0,4.693,0.515,9.291,1.544,13.789
			c1.029,4.498,2.669,8.51,4.924,12.029c2.253,3.522,5.241,6.357,8.967,8.51c3.723,2.152,8.279,3.227,13.67,3.227
			c2.448,0,4.898-0.293,7.35-0.881c2.448-0.588,4.703-1.471,6.762-2.646c2.058-1.176,3.869-2.693,5.438-4.557
			c1.566-1.861,2.693-4.115,3.381-6.762H942.361z"/>
		<path id="XMLID_86_" style="fill:#006699;" d="M1034.964,816.839h-34.836v87.459h-17.933v-87.459h-34.837V801.7h87.606V816.839z"
			/>
	</g>
	<g id="XMLID_28_">
		<path id="XMLID_29_" style="fill:#F58220;" d="M285.998,947.662c3.363,0,6.249,0.683,8.657,2.044
			c2.406,1.364,4.379,3.148,5.916,5.351c1.536,2.205,2.667,4.742,3.393,7.613c0.725,2.87,1.087,5.785,1.087,8.743
			c0,2.958-0.363,5.872-1.087,8.743c-0.726,2.871-1.857,5.409-3.393,7.612c-1.538,2.205-3.51,3.989-5.916,5.351
			c-2.408,1.362-5.293,2.045-8.657,2.045c-3.828,0-7.164-0.985-10.005-2.958c-2.842-1.972-5.018-4.698-6.525-8.178h-0.261
			l-0.261,10.44h-2.001v-64.293h2.262v28.449h0.261c1.566-3.422,3.754-6.104,6.568-8.048
			C278.849,948.634,282.17,947.662,285.998,947.662z M285.998,992.903c3.015,0,5.597-0.623,7.743-1.871
			c2.145-1.246,3.9-2.885,5.264-4.915c1.362-2.03,2.349-4.32,2.958-6.873c0.609-2.552,0.914-5.162,0.914-7.83
			c0-2.667-0.305-5.277-0.914-7.83c-0.609-2.552-1.596-4.842-2.958-6.873c-1.364-2.029-3.119-3.668-5.264-4.915
			c-2.147-1.247-4.728-1.871-7.743-1.871c-3.016,0-5.583,0.624-7.699,1.871c-2.118,1.247-3.858,2.886-5.22,4.915
			c-1.363,2.031-2.349,4.321-2.958,6.873c-0.609,2.553-0.914,5.163-0.914,7.83c0,2.668,0.305,5.278,0.914,7.83
			c0.609,2.553,1.595,4.843,2.958,6.873c1.362,2.03,3.102,3.669,5.22,4.915C280.415,992.279,282.982,992.903,285.998,992.903z"/>
		<path id="XMLID_32_" style="fill:#F58220;" d="M341.242,995.164c-3.075,0-5.67-0.493-7.787-1.479
			c-2.118-0.985-3.828-2.362-5.133-4.132c-1.305-1.768-2.249-3.842-2.828-6.221c-0.581-2.378-0.87-4.959-0.87-7.743v-27.057h2.262
			v27.057c0,2.436,0.231,4.713,0.696,6.829c0.464,2.118,1.247,3.959,2.349,5.525c1.101,1.565,2.566,2.783,4.393,3.653
			c1.827,0.87,4.132,1.306,6.917,1.306c1.797,0,3.754-0.349,5.873-1.044c2.117-0.696,4.089-1.667,5.916-2.915
			c1.827-1.246,3.363-2.725,4.611-4.436c1.247-1.711,1.871-3.581,1.871-5.612v-30.362h2.175v46.022h-1.914l-0.261-8.787h-0.348
			c-0.987,1.392-2.146,2.669-3.48,3.828c-1.335,1.161-2.784,2.146-4.35,2.958c-1.566,0.813-3.205,1.451-4.915,1.914
			C344.707,994.932,342.983,995.164,341.242,995.164z"/>
		<path id="XMLID_34_" style="fill:#F58220;" d="M400.229,968.977c2.03,0.465,4.089,0.973,6.177,1.523
			c2.088,0.553,3.972,1.306,5.655,2.263c1.682,0.957,3.045,2.19,4.089,3.697c1.044,1.509,1.566,3.451,1.566,5.829
			c0,1.565-0.348,3.118-1.044,4.654c-0.696,1.537-1.74,2.915-3.132,4.133c-1.392,1.218-3.176,2.205-5.351,2.958
			c-2.175,0.753-4.741,1.131-7.699,1.131c-4.931,0-9.092-1.175-12.485-3.523c-3.393-2.35-5.554-5.524-6.481-9.526h2.262
			c0.522,2.03,1.377,3.728,2.566,5.089c1.188,1.364,2.537,2.466,4.045,3.307c1.508,0.841,3.145,1.45,4.915,1.827
			c1.769,0.377,3.494,0.565,5.177,0.565c2.203,0,4.219-0.262,6.046-0.783c1.827-0.522,3.406-1.247,4.741-2.175
			c1.333-0.928,2.363-2.045,3.089-3.35c0.724-1.306,1.087-2.741,1.087-4.307c0-1.914-0.435-3.481-1.305-4.698
			c-0.87-1.218-2.044-2.232-3.523-3.045c-1.479-0.812-3.162-1.464-5.046-1.957c-1.886-0.492-3.814-0.971-5.786-1.436
			c-2.031-0.405-4.002-0.87-5.916-1.393c-1.914-0.521-3.64-1.203-5.176-2.044c-1.538-0.841-2.771-1.914-3.698-3.22
			c-0.928-1.305-1.392-2.972-1.392-5.002c0-1.449,0.333-2.871,1-4.264c0.667-1.392,1.667-2.653,3.001-3.784
			c1.334-1.131,3.045-2.044,5.133-2.74c2.088-0.696,4.552-1.044,7.395-1.044c4.698,0,8.613,1.175,11.745,3.523
			c3.132,2.349,5.074,5.611,5.829,9.787h-2.262c-0.696-3.479-2.379-6.19-5.046-8.134c-2.668-1.943-6.09-2.915-10.266-2.915
			c-2.436,0-4.554,0.276-6.351,0.826c-1.798,0.553-3.293,1.292-4.48,2.219c-1.19,0.929-2.06,1.958-2.61,3.089
			c-0.552,1.131-0.827,2.276-0.827,3.437c0,1.565,0.392,2.871,1.174,3.915c0.783,1.044,1.827,1.914,3.132,2.609
			c1.305,0.696,2.827,1.262,4.567,1.697C396.487,968.151,398.315,968.572,400.229,968.977z"/>
		<path id="XMLID_36_" style="fill:#F58220;" d="M441.206,934.786c0,0.521-0.16,1.044-0.479,1.565
			c-0.319,0.523-0.798,0.783-1.436,0.783c-0.639,0-1.131-0.246-1.479-0.739c-0.348-0.492-0.522-1.029-0.522-1.609
			c0-0.579,0.174-1.131,0.522-1.653c0.348-0.521,0.84-0.783,1.479-0.783c0.638,0,1.116,0.262,1.436,0.783
			C441.046,933.656,441.206,934.207,441.206,934.786z M440.424,994.294h-2.262v-45.762h2.262V994.294z"/>
		<path id="XMLID_39_" style="fill:#F58220;" d="M484.445,947.662c3.074,0,5.669,0.493,7.787,1.479
			c2.117,0.987,3.828,2.364,5.133,4.133c1.305,1.77,2.247,3.843,2.827,6.221c0.579,2.379,0.87,4.959,0.87,7.743v27.057h-2.175
			v-27.057c0-2.493-0.232-4.799-0.696-6.917c-0.465-2.116-1.248-3.943-2.349-5.48c-1.103-1.536-2.582-2.741-4.437-3.611
			c-1.857-0.869-4.176-1.305-6.96-1.305c-1.798,0-3.756,0.348-5.872,1.044c-2.118,0.696-4.089,1.668-5.916,2.915
			c-1.827,1.247-3.35,2.727-4.568,4.437c-1.218,1.712-1.827,3.582-1.827,5.611v30.363H464v-46.023h2.001l0.261,8.787h0.261
			c0.927-1.392,2.073-2.667,3.436-3.828c1.362-1.159,2.828-2.145,4.394-2.958c1.566-0.812,3.219-1.448,4.959-1.913
			C481.052,947.895,482.762,947.662,484.445,947.662z"/>
		<path id="XMLID_41_" style="fill:#F58220;" d="M522.9,970.978v1.393c0,2.784,0.348,5.409,1.044,7.873
			c0.696,2.466,1.768,4.642,3.219,6.525c1.449,1.886,3.276,3.379,5.481,4.481c2.204,1.102,4.813,1.653,7.83,1.653
			c3.828,0,7.104-0.942,9.831-2.828c2.725-1.884,4.698-4.654,5.916-8.309h2.349c-1.335,4.293-3.567,7.6-6.699,9.918
			c-3.132,2.321-6.932,3.48-11.397,3.48c-3.48,0-6.468-0.652-8.961-1.958c-2.495-1.305-4.554-3.045-6.177-5.22
			c-1.625-2.175-2.814-4.698-3.567-7.569c-0.754-2.87-1.131-5.872-1.131-9.004c0-3.132,0.391-6.134,1.174-9.005
			c0.783-2.871,2.001-5.394,3.654-7.568c1.653-2.176,3.726-3.915,6.221-5.221c2.493-1.305,5.481-1.957,8.961-1.957
			c3.421,0,6.336,0.639,8.744,1.914c2.406,1.276,4.378,3.001,5.916,5.177c1.536,2.175,2.667,4.669,3.393,7.482
			c0.724,2.814,1.087,5.728,1.087,8.743H522.9z M540.648,949.924c-2.842,0-5.322,0.493-7.438,1.479
			c-2.118,0.986-3.901,2.32-5.351,4.002c-1.45,1.683-2.581,3.669-3.393,5.959c-0.813,2.292-1.305,4.741-1.479,7.352h34.452
			c-0.174-2.552-0.609-4.973-1.305-7.265c-0.696-2.29-1.726-4.291-3.088-6.003c-1.363-1.71-3.06-3.059-5.089-4.045
			C545.925,950.417,543.49,949.924,540.648,949.924z"/>
		<path id="XMLID_44_" style="fill:#F58220;" d="M596.589,968.977c2.03,0.465,4.089,0.973,6.177,1.523
			c2.088,0.553,3.972,1.306,5.655,2.263c1.682,0.957,3.045,2.19,4.089,3.697c1.044,1.509,1.566,3.451,1.566,5.829
			c0,1.565-0.348,3.118-1.044,4.654c-0.696,1.537-1.74,2.915-3.132,4.133c-1.392,1.218-3.176,2.205-5.351,2.958
			c-2.175,0.753-4.741,1.131-7.699,1.131c-4.931,0-9.092-1.175-12.485-3.523c-3.393-2.35-5.554-5.524-6.482-9.526h2.262
			c0.522,2.03,1.377,3.728,2.566,5.089c1.188,1.364,2.537,2.466,4.045,3.307c1.508,0.841,3.146,1.45,4.916,1.827
			c1.769,0.377,3.494,0.565,5.177,0.565c2.203,0,4.219-0.262,6.046-0.783c1.827-0.522,3.406-1.247,4.741-2.175
			c1.333-0.928,2.363-2.045,3.089-3.35c0.724-1.306,1.087-2.741,1.087-4.307c0-1.914-0.435-3.481-1.305-4.698
			c-0.87-1.218-2.044-2.232-3.523-3.045c-1.479-0.812-3.162-1.464-5.046-1.957c-1.886-0.492-3.814-0.971-5.786-1.436
			c-2.031-0.405-4.002-0.87-5.916-1.393c-1.914-0.521-3.64-1.203-5.176-2.044c-1.538-0.841-2.771-1.914-3.698-3.22
			c-0.928-1.305-1.392-2.972-1.392-5.002c0-1.449,0.333-2.871,1-4.264c0.667-1.392,1.667-2.653,3.002-3.784
			c1.334-1.131,3.045-2.044,5.133-2.74c2.088-0.696,4.552-1.044,7.395-1.044c4.698,0,8.613,1.175,11.745,3.523
			c3.132,2.349,5.074,5.611,5.829,9.787h-2.262c-0.696-3.479-2.379-6.19-5.046-8.134c-2.668-1.943-6.09-2.915-10.266-2.915
			c-2.436,0-4.554,0.276-6.351,0.826c-1.798,0.553-3.292,1.292-4.48,2.219c-1.189,0.929-2.06,1.958-2.61,3.089
			c-0.552,1.131-0.827,2.276-0.827,3.437c0,1.565,0.392,2.871,1.174,3.915c0.783,1.044,1.827,1.914,3.132,2.609
			c1.305,0.696,2.827,1.262,4.567,1.697C592.847,968.151,594.675,968.572,596.589,968.977z"/>
		<path id="XMLID_46_" style="fill:#F58220;" d="M650.789,968.977c2.029,0.465,4.09,0.973,6.178,1.523
			c2.088,0.553,3.971,1.306,5.654,2.263c1.682,0.957,3.045,2.19,4.09,3.697c1.043,1.509,1.564,3.451,1.564,5.829
			c0,1.565-0.348,3.118-1.043,4.654c-0.697,1.537-1.74,2.915-3.133,4.133c-1.391,1.218-3.176,2.205-5.35,2.958
			c-2.176,0.753-4.742,1.131-7.699,1.131c-4.932,0-9.092-1.175-12.484-3.523c-3.395-2.35-5.555-5.524-6.483-9.526h2.262
			c0.521,2.03,1.377,3.728,2.566,5.089c1.189,1.364,2.537,2.466,4.047,3.307c1.506,0.841,3.145,1.45,4.914,1.827
			c1.769,0.377,3.494,0.565,5.178,0.565c2.203,0,4.219-0.262,6.045-0.783c1.828-0.522,3.408-1.247,4.742-2.175
			c1.334-0.928,2.363-2.045,3.088-3.35c0.725-1.306,1.088-2.741,1.088-4.307c0-1.914-0.435-3.481-1.305-4.698
			c-0.869-1.218-2.045-2.232-3.523-3.045c-1.479-0.812-3.162-1.464-5.047-1.957c-1.885-0.492-3.814-0.971-5.785-1.436
			c-2.031-0.405-4.002-0.87-5.916-1.393c-1.914-0.521-3.641-1.203-5.176-2.044c-1.537-0.841-2.772-1.914-3.697-3.22
			c-0.93-1.305-1.393-2.972-1.393-5.002c0-1.449,0.334-2.871,1-4.264c0.666-1.392,1.668-2.653,3.002-3.784
			c1.334-1.131,3.045-2.044,5.133-2.74c2.088-0.696,4.553-1.044,7.394-1.044c4.699,0,8.613,1.175,11.746,3.523
			c3.131,2.349,5.074,5.611,5.828,9.787h-2.262c-0.695-3.479-2.379-6.19-5.045-8.134c-2.67-1.943-6.09-2.915-10.268-2.915
			c-2.435,0-4.553,0.276-6.35,0.826c-1.799,0.553-3.293,1.292-4.481,2.219c-1.189,0.929-2.06,1.958-2.611,3.089
			c-0.551,1.131-0.826,2.276-0.826,3.437c0,1.565,0.393,2.871,1.176,3.915c0.781,1.044,1.826,1.914,3.131,2.609
			c1.305,0.696,2.828,1.262,4.568,1.697C647.049,968.151,648.875,968.572,650.789,968.977z"/>
		<path id="XMLID_48_" style="fill:#F58220;" d="M725.868,950.794v33.147c0,2.553,0.507,4.597,1.522,6.133
			c1.015,1.538,2.915,2.306,5.698,2.306c1.449,0,2.871-0.043,4.264-0.131c1.392-0.087,2.813-0.188,4.263-0.304v2.262
			c-1.45,0.115-2.871,0.218-4.263,0.305c-1.393,0.087-2.815,0.13-4.264,0.13c-3.423,0-5.858-0.985-7.308-2.958
			c-1.45-1.971-2.175-4.552-2.175-7.742v-33.147h-7.396v-2.262h7.396v-14.964h2.262v14.964h15.747v2.262H725.868z"/>
		<path id="XMLID_50_" style="fill:#F58220;" d="M778.677,947.662c5.742,0,10.12,1.45,13.137,4.35
			c3.016,2.901,4.524,7.251,4.524,13.05v29.406h-1.914l-0.261-8.7h-0.175c-0.869,1.566-1.957,2.93-3.262,4.09
			c-1.306,1.16-2.741,2.131-4.307,2.914c-1.566,0.783-3.219,1.378-4.959,1.783c-1.74,0.405-3.481,0.609-5.22,0.609
			c-2.321,0-4.539-0.319-6.656-0.957s-3.974-1.595-5.567-2.871c-1.597-1.275-2.857-2.871-3.785-4.785
			c-0.928-1.914-1.392-4.117-1.392-6.612c0-2.783,0.492-5.117,1.479-7.003c0.986-1.884,2.334-3.406,4.046-4.567
			c1.71-1.16,3.668-2.001,5.872-2.523c2.204-0.521,4.525-0.783,6.96-0.783c2.9,0,5.756,0.248,8.57,0.74
			c2.813,0.493,5.611,1.117,8.396,1.87v-2.61c0-5.161-1.306-8.975-3.915-11.44c-2.61-2.464-6.468-3.697-11.571-3.697
			c-3.249,0-6.322,0.783-9.222,2.349c-2.901,1.567-5.046,3.887-6.438,6.961h-2.349c1.449-3.769,3.828-6.641,7.134-8.613
			C771.108,948.649,774.732,947.662,778.677,947.662z M776.241,992.903c2.492,0,4.842-0.377,7.047-1.132
			c2.203-0.753,4.103-1.855,5.698-3.306c1.595-1.449,2.856-3.204,3.784-5.264c0.928-2.058,1.393-4.394,1.393-7.003v-6.265
			c-2.784-0.753-5.583-1.377-8.396-1.87c-2.814-0.492-5.67-0.739-8.57-0.739c-2.088,0-4.104,0.204-6.046,0.608
			c-1.944,0.407-3.654,1.088-5.133,2.045c-1.479,0.957-2.669,2.248-3.567,3.871c-0.899,1.625-1.349,3.654-1.349,6.09
			c0,2.205,0.405,4.119,1.218,5.742c0.812,1.625,1.914,2.974,3.307,4.046c1.392,1.074,3.001,1.87,4.828,2.393
			C772.282,992.641,774.21,992.903,776.241,992.903z"/>
		<path id="XMLID_53_" style="fill:#F58220;" d="M854.018,948.271v41.151c0,3.249-0.348,6.206-1.044,8.874
			c-0.695,2.667-1.813,4.959-3.35,6.873c-1.537,1.914-3.523,3.393-5.959,4.437c-2.437,1.045-5.395,1.566-8.874,1.566
			c-1.857,0-3.697-0.276-5.524-0.826c-1.827-0.552-3.523-1.349-5.09-2.393c-1.565-1.044-2.93-2.292-4.089-3.741
			c-1.161-1.45-2.001-3.104-2.523-4.959h2.263c0.521,1.508,1.305,2.857,2.349,4.046c1.044,1.188,2.247,2.203,3.61,3.045
			c1.362,0.84,2.813,1.492,4.351,1.957c1.536,0.464,3.088,0.696,4.654,0.696c3.132,0,5.785-0.479,7.96-1.436
			c2.176-0.957,3.944-2.292,5.308-4.002c1.362-1.712,2.334-3.771,2.914-6.177c0.579-2.408,0.87-5.06,0.87-7.961v-6.699h-0.261
			c-1.566,3.481-3.784,6.09-6.655,7.83c-2.871,1.74-6.192,2.61-9.962,2.61c-3.306,0-6.148-0.623-8.526-1.871
			c-2.379-1.246-4.35-2.928-5.916-5.046c-1.565-2.116-2.727-4.537-3.48-7.264c-0.755-2.726-1.131-5.568-1.131-8.526
			c0-2.958,0.376-5.814,1.131-8.569c0.753-2.754,1.914-5.19,3.48-7.309c1.566-2.116,3.537-3.798,5.916-5.046
			c2.378-1.246,5.221-1.87,8.526-1.87c3.769,0,7.091,0.899,9.962,2.697c2.871,1.798,5.089,4.436,6.655,7.917h0.261l0.261-10.006
			H854.018z M834.965,990.989c3.015,0,5.597-0.566,7.743-1.697c2.145-1.131,3.885-2.638,5.22-4.523
			c1.334-1.884,2.319-4.06,2.958-6.525c0.638-2.464,0.957-5.06,0.957-7.786c0-2.667-0.319-5.233-0.957-7.699
			c-0.639-2.465-1.64-4.655-3.001-6.569c-1.364-1.913-3.119-3.436-5.264-4.567c-2.146-1.131-4.698-1.696-7.656-1.696
			s-5.511,0.565-7.656,1.696c-2.146,1.131-3.886,2.654-5.22,4.567c-1.335,1.914-2.32,4.104-2.958,6.569
			c-0.639,2.466-0.957,5.032-0.957,7.699c0,2.668,0.318,5.234,0.957,7.699c0.638,2.466,1.623,4.654,2.958,6.568
			c1.334,1.914,3.073,3.436,5.22,4.567C829.454,990.423,832.007,990.989,834.965,990.989z"/>
		<path id="XMLID_56_" style="fill:#F58220;" d="M878.029,994.294v-64.119h2.262v64.119H878.029z"/>
		<path id="XMLID_58_" style="fill:#F58220;" d="M907.261,934.786c0,0.521-0.161,1.044-0.479,1.565
			c-0.32,0.523-0.799,0.783-1.436,0.783c-0.64,0-1.132-0.246-1.479-0.739c-0.348-0.492-0.521-1.029-0.521-1.609
			c0-0.579,0.174-1.131,0.521-1.653c0.348-0.521,0.84-0.783,1.479-0.783c0.637,0,1.115,0.262,1.436,0.783
			C907.1,933.656,907.261,934.207,907.261,934.786z M906.478,994.294h-2.263v-45.762h2.263V994.294z"/>
		<path id="XMLID_61_" style="fill:#F58220;" d="M950.499,947.662c3.074,0,5.669,0.493,7.787,1.479
			c2.116,0.987,3.827,2.364,5.133,4.133c1.305,1.77,2.247,3.843,2.827,6.221c0.579,2.379,0.87,4.959,0.87,7.743v27.057h-2.175
			v-27.057c0-2.493-0.232-4.799-0.696-6.917c-0.465-2.116-1.248-3.943-2.349-5.48c-1.102-1.536-2.582-2.741-4.438-3.611
			c-1.856-0.869-4.176-1.305-6.96-1.305c-1.798,0-3.756,0.348-5.872,1.044c-2.118,0.696-4.089,1.668-5.916,2.915
			c-1.827,1.247-3.35,2.727-4.567,4.437c-1.219,1.712-1.827,3.582-1.827,5.611v30.363h-2.262v-46.023h2.001l0.261,8.787h0.261
			c0.927-1.392,2.073-2.667,3.436-3.828c1.362-1.159,2.827-2.145,4.394-2.958c1.566-0.812,3.219-1.448,4.959-1.913
			C947.107,947.895,948.817,947.662,950.499,947.662z"/>
		<path id="XMLID_63_" style="fill:#F58220;" d="M988.954,970.978v1.393c0,2.784,0.348,5.409,1.044,7.873
			c0.696,2.466,1.768,4.642,3.219,6.525c1.449,1.886,3.276,3.379,5.482,4.481c2.203,1.102,4.814,1.653,7.83,1.653
			c3.828,0,7.103-0.942,9.831-2.828c2.726-1.884,4.698-4.654,5.916-8.309h2.349c-1.335,4.293-3.566,7.6-6.699,9.918
			c-3.132,2.321-6.931,3.48-11.396,3.48c-3.481,0-6.468-0.652-8.961-1.958c-2.495-1.305-4.554-3.045-6.177-5.22
			c-1.625-2.175-2.815-4.698-3.567-7.569c-0.755-2.87-1.131-5.872-1.131-9.004c0-3.132,0.392-6.134,1.174-9.005
			c0.783-2.871,2.001-5.394,3.654-7.568c1.653-2.176,3.727-3.915,6.221-5.221c2.493-1.305,5.48-1.957,8.961-1.957
			c3.422,0,6.336,0.639,8.743,1.914c2.406,1.276,4.379,3.001,5.916,5.177c1.536,2.175,2.667,4.669,3.394,7.482
			c0.725,2.814,1.087,5.728,1.087,8.743H988.954z M1006.702,949.924c-2.843,0-5.322,0.493-7.439,1.479
			c-2.118,0.986-3.901,2.32-5.351,4.002c-1.45,1.683-2.581,3.669-3.393,5.959c-0.813,2.292-1.306,4.741-1.479,7.352h34.452
			c-0.174-2.552-0.609-4.973-1.305-7.265c-0.696-2.29-1.727-4.291-3.089-6.003c-1.363-1.71-3.06-3.059-5.09-4.045
			C1011.98,950.417,1009.543,949.924,1006.702,949.924z"/>
	</g>
	<g id="XMLID_26_">
		<g id="XMLID_25_">
			
				<linearGradient id="XMLID_00000150103167601352935580000013711918590650760358_" gradientUnits="userSpaceOnUse" x1="649.2648" y1="621.8962" x2="649.2648" y2="288.8279">
				<stop  offset="0.0051" style="stop-color:#FFD400"/>
				<stop  offset="0.0222" style="stop-color:#FFD102"/>
				<stop  offset="0.1732" style="stop-color:#FCB811"/>
				<stop  offset="0.2653" style="stop-color:#FCAF17"/>
				<stop  offset="0.7908" style="stop-color:#FAA61A"/>
				<stop  offset="1" style="stop-color:#F58220"/>
			</linearGradient>
			<path id="XMLID_15_" style="fill:url(#XMLID_00000150103167601352935580000013711918590650760358_);" d="M1027.319,456.313
				c0,0-0.237,1.144-0.696,3.359c-0.471,2.208-1.17,5.497-2.187,9.749c-0.975,4.269-2.288,9.497-3.917,15.634
				c-1.585,6.157-3.655,13.147-6.038,21.009c-2.421,7.849-5.334,16.484-8.894,25.853c-3.608,9.35-7.84,19.434-13.404,30.083
				c-2.8,5.316-5.909,10.803-9.616,16.347c-3.7,5.55-7.948,11.218-13.192,16.757c-2.62,2.77-5.487,5.513-8.663,8.154
				c-3.189,2.622-6.706,5.128-10.538,7.416c-3.836,2.278-8.01,4.328-12.426,5.98c-4.419,1.648-9.06,2.917-13.753,3.771
				c-2.342,0.42-4.707,0.768-7.052,0.992c-1.182,0.132-2.342,0.204-3.52,0.292l-1.749,0.083l-0.439,0.02
				c-0.061,0.011-1.134-0.02-0.832-0.003l-0.66,0.017c-0.88,0.023-1.763,0.046-2.647,0.069c-1.125-0.011-2.426-0.055-3.639-0.093
				c-0.607-0.023-1.26-0.037-1.831-0.073l-1.7-0.112c-1.136-0.086-2.276-0.137-3.419-0.264c-4.576-0.443-9.2-1.174-13.807-2.192
				c-4.576-1.084-9.179-2.356-13.626-3.995c-4.499-1.569-8.824-3.483-13.118-5.513c-2.075-1.081-4.213-2.141-6.254-3.296
				c-2.011-1.176-4.122-2.306-6.061-3.571c-7.955-4.931-15.385-10.492-22.32-16.487c-6.929-5.995-13.508-12.326-19.623-19.001
				c-6.117-6.669-11.961-13.562-17.539-20.679c-5.479-7.144-10.853-14.439-15.929-21.912c-2.568-3.737-4.984-7.534-7.486-11.336
				c-2.386-3.827-4.875-7.657-7.204-11.542c-2.356-3.876-4.702-7.795-6.944-11.746c-1.134-1.975-2.271-3.953-3.41-5.935
				c-1.104-1.991-2.21-3.985-3.319-5.983c-1.094-1.98-2.191-3.964-3.289-5.951c-1.039-1.919-2.08-3.84-3.123-5.766
				c-2.073-3.813-4.153-7.637-6.239-11.474c-4.198-7.641-8.418-15.274-12.649-22.832c-4.237-7.548-8.59-14.982-12.926-22.187
				c-4.347-7.193-8.787-14.13-13.277-20.393c-4.443-6.255-8.963-11.856-13.126-15.866c-2.074-2.034-4.036-3.599-5.784-4.861
				c-1.763-1.223-3.328-2.082-4.921-2.757c-1.602-0.657-3.3-1.161-5.418-1.556c-2.112-0.376-4.663-0.653-7.616-0.737l-1.129-0.02
				l-0.284-0.005c0.069-0.002-0.557-0.004,0.083-0.005l-0.861,0.006c-1.476,0.005-1.467,0.031-2.089,0.043
				c-1.324,0.049-2.527,0.16-3.646,0.3c-2.239,0.289-4.065,0.709-5.766,1.306c-1.713,0.577-3.373,1.311-5.233,2.419
				c-1.852,1.11-3.888,2.565-6.067,4.44c-2.172,1.856-4.477,4.113-6.846,6.603c-2.364,2.525-4.77,5.297-7.174,8.277
				c-2.405,2.98-4.81,6.138-7.2,9.413c-2.405,3.265-4.809,6.641-7.187,10.095c-4.776,6.904-9.419,14.123-14.111,21.39
				c-4.675,7.276-9.276,14.673-13.853,22.083c-4.608,7.391-9.167,14.816-13.687,22.22c-1.159,1.881-2.317,3.759-3.472,5.633
				c-1.206,1.925-2.409,3.846-3.611,5.764c-2.4,3.792-4.804,7.562-7.243,11.303c-9.772,14.944-19.894,29.446-30.64,43.282
				c-2.688,3.46-5.389,6.893-8.153,10.269c-2.776,3.37-5.586,6.699-8.44,9.983c-5.7,6.576-11.616,12.949-17.824,19.059
				c-6.197,6.121-12.67,12.006-19.642,17.491c-6.972,5.486-14.356,10.662-22.641,15.081c-8.246,4.402-17.413,8.219-27.829,10.045
				c-2.603,0.446-5.265,0.768-7.973,0.932c-1.354,0.083-2.722,0.118-4.093,0.119c-0.685,0.002-1.379-0.025-2.065-0.042l-0.515-0.016
				c-0.047-0.001-1.601-0.034-1.091-0.037l-0.657-0.07c-1.038-0.114-2.074-0.229-3.107-0.342l-2.2-0.287
				c-0.703-0.105-1.53-0.204-2.078-0.334c-1.206-0.255-2.408-0.51-3.608-0.764c-1.167-0.296-2.313-0.616-3.459-0.931
				c-1.16-0.299-2.232-0.698-3.334-1.056c-1.097-0.365-2.187-0.733-3.219-1.16c-1.041-0.417-2.078-0.834-3.114-1.249
				c-0.994-0.456-1.986-0.911-2.974-1.365c-1.991-0.892-3.809-1.938-5.673-2.92c-1.77-1.069-3.586-2.078-5.252-3.198
				c-6.767-4.392-12.631-9.221-17.817-14.223c-5.178-5.003-9.788-10.1-13.81-15.276c-4.036-5.16-7.7-10.267-10.879-15.371
				c-3.267-5.053-6.089-10.077-8.704-14.943c-1.295-2.439-2.494-4.858-3.688-7.217c-1.153-2.379-2.219-4.734-3.292-7.021
				c-4.162-9.209-7.42-17.81-10.127-25.614c-1.283-3.93-2.555-7.609-3.612-11.115c-0.515-1.756-1.013-3.457-1.496-5.102
				c-0.489-1.639-0.934-3.23-1.333-4.773c-0.808-3.082-1.608-5.904-2.237-8.523c-0.609-2.621-1.162-5.002-1.657-7.134
				c-0.511-2.121-0.896-4.015-1.215-5.653c-0.325-1.633-0.599-3.008-0.82-4.115c-0.425-2.214-0.644-3.356-0.644-3.356
				s2.332,4.014,6.703,11.541c1.103,1.863,2.335,3.943,3.691,6.232c1.374,2.266,2.875,4.74,4.496,7.413
				c3.286,5.308,7.135,11.33,11.528,17.942c4.504,6.548,9.55,13.686,15.326,21.098c1.472,1.83,2.941,3.715,4.484,5.589
				c1.576,1.846,3.123,3.764,4.765,5.647c3.31,3.742,6.753,7.559,10.463,11.253c7.382,7.406,15.668,14.623,24.786,20.458
				c4.557,2.897,9.292,5.464,14.083,7.405c1.193,0.518,2.401,0.877,3.591,1.337c0.595,0.179,1.191,0.359,1.79,0.539
				c0.593,0.194,1.184,0.376,1.772,0.504c2.359,0.672,4.663,1.001,6.85,1.231l1.612,0.111l1.539,0.002
				c0.309,0.023,0.354-0.043,0.518-0.059c0.138-0.025,0.274-0.046,0.408-0.056c0.712-0.038,1.426-0.076,2.142-0.114l0.66-0.035
				c0.729,0-0.605-0.018-0.432-0.03l0.145-0.032l0.578-0.12c0.391-0.093,0.788-0.19,1.196-0.31c0.817-0.237,1.67-0.526,2.561-0.868
				c3.565-1.412,7.808-3.83,12.195-7.18c4.383-3.335,8.938-7.497,13.427-12.177c4.482-4.705,8.954-9.914,13.345-15.486
				c2.195-2.788,4.365-5.673,6.521-8.629c2.169-2.947,4.323-5.964,6.449-9.063c4.251-6.194,8.432-12.648,12.588-19.279
				c8.262-13.302,16.34-27.366,24.247-41.954c1.989-3.639,3.954-7.324,5.915-11.031c1.956-3.745,3.919-7.505,5.89-11.278
				c4.096-7.804,8.254-15.675,12.518-23.616c8.626-15.841,17.53-31.93,27.851-48.298c5.152-8.207,10.686-16.486,17.059-24.878
				c6.411-8.371,13.554-17.014,22.934-25.39c4.671-4.178,9.942-8.286,15.865-12.021c5.915-3.733,12.542-7.035,19.465-9.541
				c6.933-2.503,14.101-4.142,20.955-5.063c3.43-0.462,6.802-0.764,10.063-0.916c1.67-0.079,3.973-0.138,4.792-0.14l0.86-0.011
				l1.52,0.003l2.312,0.028c6.22,0.14,12.844,0.66,19.753,1.987c6.897,1.31,14.052,3.402,20.893,6.332
				c6.842,2.929,13.274,6.651,18.979,10.728c5.695,4.078,10.683,8.515,15.066,12.952c8.787,8.922,15.452,17.843,21.384,26.522
				c5.851,8.713,10.921,17.243,15.679,25.658c4.767,8.407,9.079,16.753,13.304,24.99c2.101,4.123,4.163,8.217,6.184,12.305
				c1.982,4.086,3.958,8.16,5.929,12.223c1.935,4.054,3.865,8.096,5.788,12.124c1.848,3.923,3.691,7.834,5.526,11.73
				c0.891,1.888,1.78,3.772,2.668,5.653c0.913,1.858,1.824,3.713,2.733,5.564c1.79,3.73,3.694,7.337,5.515,10.984
				c1.821,3.654,3.75,7.17,5.606,10.744c1.934,3.485,3.81,7.02,5.781,10.414c3.842,6.892,7.852,13.471,11.905,19.875
				c4.104,6.325,8.244,12.436,12.538,18.166c4.304,5.715,8.677,11.073,13.181,15.946c9.003,9.741,18.349,17.569,27.836,22.551
				c4.751,2.55,9.563,4.379,14.563,5.707c0.622,0.178,1.262,0.292,1.892,0.447l0.949,0.221l0.821,0.169
				c0.555,0.108,1.016,0.229,1.651,0.347c0.879,0.105,1.755,0.21,2.629,0.314l0.655,0.078c0.521,0.029-0.333,0.005-0.175,0.017
				l0.219,0.029l0.876,0.122c0.569,0.061,1.153,0.156,1.708,0.199c1.132,0.126,2.218,0.179,3.296,0.216
				c4.287,0.114,8.224-0.471,12.342-1.805c4.083-1.363,8.28-3.567,12.4-6.396c4.103-2.841,8.125-6.231,11.935-9.888
				c3.796-3.676,7.446-7.565,10.87-11.543c6.863-7.962,13.014-16.095,18.543-23.81c5.564-7.71,10.49-15.045,14.958-21.706
				c8.888-13.363,15.676-24.156,20.421-31.466C1024.728,460.222,1027.319,456.313,1027.319,456.313z"/>
			
				<linearGradient id="XMLID_00000098217258297190038910000013800143686394706327_" gradientUnits="userSpaceOnUse" x1="618.405" y1="291.3282" x2="618.405" y2="224.1327" gradientTransform="matrix(-1 0 0 -1 1282.006 588.6337)">
				<stop  offset="0" style="stop-color:#FBB040"/>
				<stop  offset="0.1375" style="stop-color:#FAA337;stop-opacity:0.8618"/>
				<stop  offset="0.4072" style="stop-color:#F7912A;stop-opacity:0.5907"/>
				<stop  offset="0.688" style="stop-color:#F68622;stop-opacity:0.3085"/>
				<stop  offset="0.9949" style="stop-color:#F58220;stop-opacity:0"/>
			</linearGradient>
			<path id="XMLID_19_" style="fill:url(#XMLID_00000098217258297190038910000013800143686394706327_);" d="M749.721,356.456
				c-12.088-16.166-25.294-31.953-42.194-42.993c-31.366-20.49-74.344-21.591-106.718-2.734
				c-8.408,4.898-16.359,11.319-20.574,20.09c-4.215,8.771-3.849,20.252,2.881,27.281c8.215,8.58,22.563,7.687,33.153,2.305
				s18.949-14.258,28.809-20.883c15.118-10.158,33.87-14.779,51.977-12.81c18.107,1.969,35.427,10.513,48.008,23.683"/>
			
				<linearGradient id="XMLID_00000088824532592944987290000010080584187075938472_" gradientUnits="userSpaceOnUse" x1="387.6808" y1="616.2982" x2="387.6808" y2="576.2531">
				<stop  offset="0" style="stop-color:#FFF200"/>
				<stop  offset="0.0492" style="stop-color:#FFEB07;stop-opacity:0.9505"/>
				<stop  offset="0.2709" style="stop-color:#FDD120;stop-opacity:0.7277"/>
				<stop  offset="0.4992" style="stop-color:#FCBF32;stop-opacity:0.4983"/>
				<stop  offset="0.7361" style="stop-color:#FCB33C;stop-opacity:0.2602"/>
				<stop  offset="0.9949" style="stop-color:#FBB040;stop-opacity:0"/>
			</linearGradient>
			<path id="XMLID_20_" style="fill:url(#XMLID_00000088824532592944987290000010080584187075938472_);" d="M401.964,616.239
				c7.605-0.318,15.541-2.042,21.433-7.592c5.892-5.551,8.961-15.796,5.254-23.456c-2.602-5.377-7.98-8.433-13.307-8.872
				c-5.327-0.439-10.614,1.409-15.491,3.92c-4.877,2.511-9.477,5.694-14.371,8.16c-6.406,3.229-13.295,5.144-20.264,5.739
				c-3.536,0.302-7.095,0.264-10.626-0.117c-2.638-0.284-7.076-2.312-9.495-1.12c2.487,4.222,8.324,7.694,12.202,10.285
				c4.434,2.962,9.103,5.459,13.927,7.453C381.047,614.698,391.53,616.675,401.964,616.239z"/>
			
				<linearGradient id="XMLID_00000140698389471480784500000010907982355615889327_" gradientUnits="userSpaceOnUse" x1="877.1514" y1="616.2982" x2="877.1514" y2="576.2531" gradientTransform="matrix(-1 0 0 1 1792.8322 0)">
				<stop  offset="0" style="stop-color:#FFF200"/>
				<stop  offset="0.0492" style="stop-color:#FFEB07;stop-opacity:0.9505"/>
				<stop  offset="0.2709" style="stop-color:#FDD120;stop-opacity:0.7277"/>
				<stop  offset="0.4992" style="stop-color:#FCBF32;stop-opacity:0.4983"/>
				<stop  offset="0.7361" style="stop-color:#FCB33C;stop-opacity:0.2602"/>
				<stop  offset="0.9949" style="stop-color:#FBB040;stop-opacity:0"/>
			</linearGradient>
			<path id="XMLID_23_" style="fill:url(#XMLID_00000140698389471480784500000010907982355615889327_);" d="M901.397,616.239
				c-7.605-0.318-15.541-2.042-21.433-7.592c-5.892-5.551-8.96-15.796-5.254-23.456c2.602-5.377,7.98-8.433,13.308-8.872
				c5.327-0.439,10.614,1.409,15.491,3.92s9.477,5.694,14.371,8.16c6.406,3.229,13.295,5.144,20.264,5.739
				c3.536,0.302,7.095,0.264,10.626-0.117c2.638-0.284,7.076-2.312,9.494-1.12c-2.487,4.222-8.324,7.694-12.202,10.285
				c-4.434,2.962-9.103,5.459-13.927,7.453C922.314,614.698,911.831,616.675,901.397,616.239z"/>
		</g>
		<g id="XMLID_22_">
			
				<linearGradient id="XMLID_00000123431490096213952230000017961008643328150400_" gradientUnits="userSpaceOnUse" x1="649.2648" y1="732.5842" x2="649.2648" y2="399.5159">
				<stop  offset="0.0051" style="stop-color:#44C8F5"/>
				<stop  offset="0.0331" style="stop-color:#3AC0E8"/>
				<stop  offset="0.1351" style="stop-color:#1BA7C0"/>
				<stop  offset="0.2161" style="stop-color:#0798A7"/>
				<stop  offset="0.2653" style="stop-color:#00929E"/>
				<stop  offset="1" style="stop-color:#006699"/>
			</linearGradient>
			<path id="XMLID_17_" style="fill:url(#XMLID_00000123431490096213952230000017961008643328150400_);" d="M1027.319,565.099
				c0,0-2.591-3.909-7.281-11.246c-4.745-7.31-11.533-18.103-20.421-31.466c-4.467-6.661-9.394-13.996-14.958-21.706
				c-5.53-7.715-11.68-15.848-18.543-23.81c-3.424-3.978-7.074-7.867-10.87-11.543c-3.81-3.657-7.833-7.048-11.935-9.888
				c-4.12-2.828-8.317-5.032-12.4-6.395c-4.118-1.333-8.055-1.918-12.342-1.805c-1.077,0.036-2.164,0.089-3.296,0.215
				c-0.555,0.043-1.139,0.138-1.708,0.199l-0.876,0.122l-0.219,0.029c-0.158,0.012,0.696-0.011,0.175,0.017l-0.655,0.078
				c-0.874,0.104-1.751,0.209-2.629,0.314c-0.635,0.118-1.096,0.239-1.651,0.347l-0.821,0.169l-0.949,0.222
				c-0.63,0.155-1.27,0.268-1.892,0.447c-5,1.328-9.812,3.157-14.563,5.707c-9.487,4.982-18.833,12.81-27.836,22.551
				c-4.504,4.873-8.877,10.231-13.181,15.946c-4.294,5.73-8.434,11.841-12.538,18.166c-4.053,6.403-8.063,12.983-11.905,19.875
				c-1.971,3.394-3.847,6.929-5.781,10.414c-1.856,3.575-3.785,7.091-5.606,10.744c-1.821,3.647-3.725,7.254-5.515,10.984
				c-0.909,1.851-1.82,3.706-2.733,5.564c-0.888,1.881-1.777,3.765-2.668,5.653c-1.836,3.896-3.678,7.807-5.526,11.73
				c-1.923,4.028-3.853,8.07-5.788,12.124c-1.97,4.062-3.947,8.137-5.929,12.223c-2.021,4.088-4.083,8.183-6.184,12.305
				c-4.225,8.237-8.537,16.583-13.304,24.99c-4.758,8.415-9.828,16.945-15.679,25.658c-5.932,8.678-12.597,17.599-21.384,26.522
				c-4.384,4.438-9.371,8.874-15.066,12.952c-5.705,4.077-12.137,7.799-18.979,10.728c-6.84,2.93-13.996,5.022-20.893,6.332
				c-6.909,1.327-13.533,1.847-19.753,1.987l-2.312,0.028l-1.52,0.003l-0.86-0.011c-0.819-0.001-3.122-0.061-4.792-0.14
				c-3.261-0.152-6.633-0.454-10.063-0.916c-6.854-0.922-14.022-2.56-20.955-5.063c-6.924-2.506-13.55-5.808-19.465-9.541
				c-5.923-3.734-11.194-7.842-15.865-12.021c-9.379-8.376-16.522-17.019-22.934-25.39c-6.372-8.392-11.907-16.671-17.059-24.877
				c-10.321-16.367-19.225-32.457-27.851-48.298c-4.264-7.94-8.421-15.812-12.518-23.616c-1.971-3.773-3.934-7.533-5.89-11.278
				c-1.962-3.707-3.926-7.392-5.915-11.031c-7.907-14.588-15.985-28.652-24.247-41.954c-4.157-6.631-8.337-13.085-12.588-19.279
				c-2.126-3.099-4.28-6.116-6.449-9.063c-2.156-2.957-4.326-5.841-6.521-8.629c-4.391-5.572-8.863-10.782-13.345-15.486
				c-4.49-4.68-9.044-8.842-13.427-12.177c-4.387-3.35-8.63-5.768-12.195-7.18c-0.89-0.343-1.744-0.632-2.561-0.868
				c-0.409-0.119-0.805-0.216-1.196-0.31l-0.578-0.12l-0.145-0.032c-0.173-0.012,1.161-0.03,0.432-0.03l-0.66-0.035
				c-0.716-0.038-1.43-0.076-2.142-0.114c-0.134-0.01-0.27-0.031-0.408-0.056c-0.164-0.016-0.209-0.082-0.518-0.059l-1.539,0.001
				l-1.612,0.111c-2.187,0.229-4.492,0.558-6.85,1.231c-0.588,0.129-1.179,0.31-1.772,0.504c-0.598,0.18-1.195,0.36-1.79,0.539
				c-1.19,0.46-2.398,0.819-3.591,1.337c-4.792,1.941-9.526,4.508-14.083,7.405c-9.118,5.834-17.404,13.051-24.786,20.458
				c-3.71,3.694-7.153,7.511-10.463,11.253c-1.643,1.883-3.189,3.801-4.765,5.647c-1.543,1.874-3.012,3.758-4.484,5.589
				c-5.775,7.411-10.821,14.55-15.326,21.098c-4.393,6.612-8.243,12.634-11.528,17.942c-1.621,2.673-3.122,5.147-4.496,7.413
				c-1.356,2.289-2.588,4.369-3.691,6.232c-4.372,7.527-6.703,11.541-6.703,11.541s0.219-1.143,0.644-3.356
				c0.22-1.107,0.494-2.481,0.82-4.114c0.319-1.638,0.704-3.532,1.215-5.653c0.495-2.132,1.048-4.513,1.657-7.134
				c0.629-2.62,1.43-5.441,2.237-8.523c0.399-1.543,0.845-3.134,1.333-4.773c0.482-1.645,0.981-3.346,1.496-5.102
				c1.057-3.506,2.329-7.185,3.612-11.115c2.707-7.804,5.965-16.405,10.127-25.614c1.073-2.287,2.139-4.642,3.292-7.021
				c1.194-2.359,2.393-4.778,3.688-7.217c2.615-4.866,5.437-9.89,8.704-14.943c3.179-5.104,6.842-10.211,10.879-15.371
				c4.021-5.176,8.632-10.273,13.81-15.276c5.186-5.003,11.05-9.831,17.817-14.224c1.667-1.119,3.483-2.129,5.252-3.198
				c1.865-0.983,3.683-2.028,5.673-2.92c0.989-0.454,1.98-0.909,2.974-1.365c1.035-0.415,2.073-0.831,3.114-1.249
				c1.032-0.428,2.122-0.795,3.219-1.16c1.103-0.358,2.174-0.757,3.334-1.056c1.146-0.315,2.291-0.635,3.459-0.931
				c1.2-0.254,2.402-0.509,3.608-0.764c0.549-0.129,1.375-0.229,2.078-0.334l2.2-0.287c1.033-0.114,2.069-0.228,3.107-0.342
				l0.657-0.07c-0.509-0.004,1.044-0.036,1.091-0.037l0.515-0.016c0.686-0.017,1.381-0.044,2.065-0.042
				c1.372,0,2.739,0.035,4.093,0.118c2.708,0.164,5.37,0.486,7.973,0.932c10.415,1.827,19.583,5.643,27.829,10.045
				c8.284,4.418,15.668,9.594,22.641,15.081c6.972,5.486,13.445,11.37,19.642,17.491c6.208,6.11,12.123,12.483,17.824,19.059
				c2.854,3.284,5.664,6.614,8.44,9.983c2.764,3.376,5.465,6.809,8.153,10.269c10.746,13.837,20.868,28.338,30.64,43.282
				c2.439,3.741,4.843,7.511,7.243,11.303c1.201,1.918,2.405,3.839,3.611,5.764c1.155,1.874,2.313,3.752,3.472,5.632
				c4.52,7.405,9.079,14.83,13.687,22.22c4.577,7.41,9.177,14.807,13.853,22.083c4.692,7.267,9.335,14.486,14.111,21.39
				c2.379,3.455,4.782,6.83,7.187,10.095c2.39,3.275,4.795,6.433,7.2,9.413c2.404,2.98,4.81,5.752,7.174,8.276
				c2.369,2.49,4.674,4.747,6.846,6.603c2.179,1.876,4.215,3.331,6.067,4.44c1.86,1.107,3.52,1.842,5.233,2.419
				c1.701,0.597,3.527,1.017,5.766,1.306c1.119,0.14,2.321,0.251,3.646,0.3c0.622,0.011,0.613,0.038,2.089,0.043l0.861,0.006
				c-0.64-0.002-0.014-0.004-0.083-0.005l0.284-0.005l1.129-0.02c2.953-0.084,5.504-0.362,7.616-0.738
				c2.119-0.394,3.816-0.898,5.418-1.556c1.594-0.675,3.158-1.534,4.921-2.757c1.747-1.262,3.71-2.827,5.784-4.861
				c4.163-4.01,8.683-9.612,13.126-15.866c4.489-6.263,8.93-13.201,13.277-20.393c4.336-7.206,8.689-14.639,12.926-22.187
				c4.232-7.559,8.452-15.192,12.649-22.832c2.086-3.837,4.166-7.662,6.239-11.474c1.043-1.925,2.084-3.847,3.123-5.766
				c1.098-1.987,2.195-3.971,3.289-5.952c1.108-1.998,2.214-3.992,3.319-5.983c1.139-1.982,2.275-3.961,3.41-5.935
				c2.243-3.951,4.588-7.87,6.944-11.746c2.329-3.885,4.818-7.715,7.204-11.542c2.502-3.802,4.918-7.599,7.486-11.336
				c5.076-7.473,10.451-14.768,15.929-21.912c5.578-7.117,11.422-14.01,17.539-20.679c6.115-6.675,12.694-13.005,19.623-19.001
				c6.935-5.994,14.364-11.555,22.32-16.486c1.939-1.265,4.05-2.396,6.061-3.571c2.041-1.155,4.179-2.215,6.254-3.296
				c4.294-2.03,8.618-3.944,13.118-5.513c4.447-1.639,9.051-2.91,13.626-3.994c4.607-1.019,9.231-1.749,13.807-2.192
				c1.143-0.126,2.283-0.177,3.419-0.264l1.7-0.112c0.572-0.035,1.225-0.05,1.831-0.072c1.212-0.038,2.513-0.081,3.639-0.093
				c0.885,0.023,1.767,0.046,2.647,0.069l0.66,0.017c-0.302,0.017,0.771-0.014,0.832-0.003l0.439,0.02l1.749,0.083
				c1.178,0.088,2.338,0.16,3.52,0.292c2.345,0.225,4.709,0.573,7.052,0.992c4.693,0.854,9.335,2.123,13.753,3.771
				c4.417,1.652,8.59,3.702,12.426,5.98c3.832,2.288,7.349,4.794,10.538,7.416c3.176,2.641,6.043,5.384,8.663,8.154
				c5.244,5.539,9.492,11.207,13.192,16.757c3.707,5.545,6.816,11.031,9.616,16.347c5.564,10.65,9.796,20.733,13.404,30.083
				c3.559,9.37,6.473,18.004,8.894,25.853c2.383,7.863,4.452,14.852,6.038,21.009c1.629,6.136,2.941,11.364,3.917,15.634
				c1.017,4.252,1.716,7.541,2.187,9.749C1027.082,563.955,1027.319,565.099,1027.319,565.099z"/>
			
				<linearGradient id="XMLID_00000080927933941125786500000008067732540644250778_" gradientUnits="userSpaceOnUse" x1="640.2677" y1="723.8344" x2="640.2677" y2="656.6389">
				<stop  offset="0" style="stop-color:#ABE1FA"/>
				<stop  offset="0.0474" style="stop-color:#A1DEF9;stop-opacity:0.9524"/>
				<stop  offset="0.2242" style="stop-color:#7FD6F7;stop-opacity:0.7746"/>
				<stop  offset="0.4057" style="stop-color:#65D0F6;stop-opacity:0.5922"/>
				<stop  offset="0.5915" style="stop-color:#53CBF5;stop-opacity:0.4055"/>
				<stop  offset="0.7842" style="stop-color:#48C8F5;stop-opacity:0.2117"/>
				<stop  offset="0.9949" style="stop-color:#44C8F5;stop-opacity:0"/>
			</linearGradient>
			<path id="XMLID_16_" style="fill:url(#XMLID_00000080927933941125786500000008067732540644250778_);" d="M554.147,664.684
				c12.088,16.167,25.294,31.953,42.194,42.993c31.366,20.49,74.344,21.591,106.718,2.734c8.408-4.898,16.36-11.319,20.574-20.09
				s3.849-20.252-2.881-27.281c-8.215-8.58-22.563-7.687-33.153-2.305c-10.59,5.381-18.949,14.258-28.809,20.883
				c-15.118,10.157-33.87,14.779-51.977,12.81c-18.107-1.969-35.427-10.513-48.008-23.683"/>
			
				<linearGradient id="XMLID_00000061461957692082529680000006845422169626303385_" gradientUnits="userSpaceOnUse" x1="391.5817" y1="433.4679" x2="391.5817" y2="403.8908">
				<stop  offset="0.0051" style="stop-color:#006699;stop-opacity:0"/>
				<stop  offset="0.2583" style="stop-color:#00699D;stop-opacity:0.2545"/>
				<stop  offset="0.49" style="stop-color:#0072A8;stop-opacity:0.4874"/>
				<stop  offset="0.7133" style="stop-color:#0080BB;stop-opacity:0.7118"/>
				<stop  offset="0.9301" style="stop-color:#0093D5;stop-opacity:0.9298"/>
				<stop  offset="1" style="stop-color:#009BDF"/>
			</linearGradient>
			<path id="XMLID_18_" style="fill:url(#XMLID_00000061461957692082529680000006845422169626303385_);" d="M407.532,404.865
				c5.076,0.897,10.212,2.471,14.112,5.842c3.899,3.371,6.291,8.874,4.801,13.808c-1.425,4.719-6.116,7.945-10.984,8.725
				c-4.868,0.78-9.852-0.526-14.375-2.486c-4.523-1.96-8.737-4.572-13.227-6.608c-5.612-2.545-11.643-4.15-17.77-4.78
				c-2.089-0.215-14.214,0.95-13.807-2.337c0.365-2.948,12.352-7.307,14.854-8.298c5.319-2.108,10.903-3.553,16.577-4.284
				C394.29,403.597,400.998,403.711,407.532,404.865z"/>
			
				<linearGradient id="XMLID_00000165199324084397279440000015463448198533344641_" gradientUnits="userSpaceOnUse" x1="895.0522" y1="433.4679" x2="895.0522" y2="403.8908" gradientTransform="matrix(-1 0 0 1 1806.6339 0)">
				<stop  offset="0.0051" style="stop-color:#006699;stop-opacity:0"/>
				<stop  offset="0.2583" style="stop-color:#00699D;stop-opacity:0.2545"/>
				<stop  offset="0.49" style="stop-color:#0072A8;stop-opacity:0.4874"/>
				<stop  offset="0.7133" style="stop-color:#0080BB;stop-opacity:0.7118"/>
				<stop  offset="0.9301" style="stop-color:#0093D5;stop-opacity:0.9298"/>
				<stop  offset="1" style="stop-color:#009BDF"/>
			</linearGradient>
			<path id="XMLID_21_" style="fill:url(#XMLID_00000165199324084397279440000015463448198533344641_);" d="M895.632,404.865
				c-5.076,0.897-10.212,2.471-14.112,5.842c-3.899,3.371-6.291,8.874-4.801,13.808c1.425,4.719,6.116,7.945,10.983,8.725
				c4.868,0.78,9.852-0.526,14.375-2.486c4.523-1.96,8.737-4.572,13.227-6.608c5.612-2.545,11.642-4.15,17.77-4.78
				c2.089-0.215,14.214,0.95,13.807-2.337c-0.365-2.948-12.352-7.307-14.854-8.298c-5.319-2.108-10.903-3.553-16.577-4.284
				C908.873,403.597,902.165,403.711,895.632,404.865z"/>
		</g>
	</g>
</g>
</svg>
